<svg xmlns="http://www.w3.org/2000/svg" xmlns:xlink="http://www.w3.org/1999/xlink" width="500" zoomAndPan="magnify" viewBox="0 0 375 374.999991" height="500" preserveAspectRatio="xMidYMid meet" version="1.0"><defs><g/><clipPath id="id1"><path d="M 185.625 128.933594 L 231.816406 128.933594 L 231.816406 184.433594 L 185.625 184.433594 Z M 185.625 128.933594 " clip-rule="nonzero"/></clipPath><clipPath id="id2"><path d="M 231.621094 173.769531 C 230.398438 180.753906 223.789062 185.417969 216.863281 184.1875 C 209.9375 182.957031 205.308594 176.292969 206.53125 169.308594 C 207.75 162.324219 203.125 155.660156 196.199219 154.429688 C 189.269531 153.199219 184.644531 146.535156 185.863281 139.550781 C 187.085938 132.5625 193.695312 127.898438 200.621094 129.128906 C 207.546875 130.363281 212.175781 137.023438 210.953125 144.011719 C 209.734375 150.996094 214.359375 157.65625 221.285156 158.890625 C 228.214844 160.121094 232.839844 166.785156 231.621094 173.769531 Z M 231.621094 173.769531 " clip-rule="nonzero"/></clipPath><clipPath id="id3"><path d="M 231.621094 173.769531 C 230.398438 180.753906 223.789062 185.417969 216.863281 184.1875 C 209.9375 182.957031 205.308594 176.292969 206.53125 169.308594 C 207.75 162.324219 203.125 155.660156 196.199219 154.429688 C 189.269531 153.199219 184.644531 146.535156 185.863281 139.550781 C 187.085938 132.5625 193.695312 127.898438 200.621094 129.128906 C 207.546875 130.363281 212.175781 137.023438 210.953125 144.011719 C 209.734375 150.996094 214.359375 157.65625 221.285156 158.890625 C 228.214844 160.121094 232.839844 166.785156 231.621094 173.769531 " clip-rule="nonzero"/></clipPath><linearGradient x1="-0.001001" gradientTransform="matrix(46.1459, 0, 0, 46.307242, 185.66925, 156.659236)" y1="0" x2="1" gradientUnits="userSpaceOnUse" y2="0" id="id4"><stop stop-opacity="1" stop-color="rgb(91.799927%, 32.499695%, 25.498962%)" offset="0"/><stop stop-opacity="1" stop-color="rgb(91.799927%, 32.453918%, 25.498962%)" offset="0.015625"/><stop stop-opacity="1" stop-color="rgb(91.799927%, 32.250977%, 25.550842%)" offset="0.03125"/><stop stop-opacity="1" stop-color="rgb(91.752625%, 31.947327%, 25.750732%)" offset="0.046875"/><stop stop-opacity="1" stop-color="rgb(91.552734%, 31.752014%, 25.946045%)" offset="0.0625"/><stop stop-opacity="1" stop-color="rgb(91.398621%, 31.510925%, 26.145935%)" offset="0.078125"/><stop stop-opacity="1" stop-color="rgb(91.398621%, 31.214905%, 26.298523%)" offset="0.0859375"/><stop stop-opacity="1" stop-color="rgb(91.398621%, 31.013489%, 26.298523%)" offset="0.09375"/><stop stop-opacity="1" stop-color="rgb(91.365051%, 30.723572%, 26.332092%)" offset="0.109375"/><stop stop-opacity="1" stop-color="rgb(91.165161%, 30.36499%, 26.531982%)" offset="0.125"/><stop stop-opacity="1" stop-color="rgb(90.99884%, 30.169678%, 26.727295%)" offset="0.140625"/><stop stop-opacity="1" stop-color="rgb(90.979004%, 29.949951%, 26.927185%)" offset="0.15625"/><stop stop-opacity="1" stop-color="rgb(90.779114%, 29.566956%, 27.099609%)" offset="0.171875"/><stop stop-opacity="1" stop-color="rgb(90.59906%, 29.273987%, 27.099609%)" offset="0.179688"/><stop stop-opacity="1" stop-color="rgb(90.59906%, 29.069519%, 27.113342%)" offset="0.1875"/><stop stop-opacity="1" stop-color="rgb(90.59906%, 28.77655%, 27.313232%)" offset="0.203125"/><stop stop-opacity="1" stop-color="rgb(90.59906%, 28.483582%, 27.49939%)" offset="0.210938"/><stop stop-opacity="1" stop-color="rgb(90.588379%, 28.28064%, 27.507019%)" offset="0.21875"/><stop stop-opacity="1" stop-color="rgb(90.388489%, 27.989197%, 27.656555%)" offset="0.25"/><stop stop-opacity="1" stop-color="rgb(90.19928%, 27.728271%, 27.893066%)" offset="0.257812"/><stop stop-opacity="1" stop-color="rgb(90.19928%, 27.581787%, 28.089905%)" offset="0.265625"/><stop stop-opacity="1" stop-color="rgb(90.19928%, 27.314758%, 28.19519%)" offset="0.28125"/><stop stop-opacity="1" stop-color="rgb(90.019226%, 26.931763%, 28.199768%)" offset="0.296875"/><stop stop-opacity="1" stop-color="rgb(89.819336%, 26.64032%, 28.279114%)" offset="0.304688"/><stop stop-opacity="1" stop-color="rgb(89.7995%, 26.437378%, 28.460693%)" offset="0.3125"/><stop stop-opacity="1" stop-color="rgb(89.7995%, 26.142883%, 28.581238%)" offset="0.328125"/><stop stop-opacity="1" stop-color="rgb(89.7995%, 25.849915%, 28.672791%)" offset="0.335937"/><stop stop-opacity="1" stop-color="rgb(89.7995%, 25.648499%, 28.849792%)" offset="0.34375"/><stop stop-opacity="1" stop-color="rgb(89.630127%, 25.352478%, 28.974915%)" offset="0.359375"/><stop stop-opacity="1" stop-color="rgb(89.430237%, 25.1297%, 29.159546%)" offset="0.375"/><stop stop-opacity="1" stop-color="rgb(89.399719%, 24.937439%, 29.359436%)" offset="0.390625"/><stop stop-opacity="1" stop-color="rgb(89.24408%, 24.581909%, 29.399109%)" offset="0.40625"/><stop stop-opacity="1" stop-color="rgb(89.044189%, 24.195862%, 29.545593%)" offset="0.421875"/><stop stop-opacity="1" stop-color="rgb(88.999939%, 23.905945%, 29.745483%)" offset="0.429688"/><stop stop-opacity="1" stop-color="rgb(88.999939%, 23.706055%, 29.798889%)" offset="0.4375"/><stop stop-opacity="1" stop-color="rgb(88.999939%, 23.408508%, 29.940796%)" offset="0.453125"/><stop stop-opacity="1" stop-color="rgb(88.95874%, 23.117065%, 30.140686%)" offset="0.460937"/><stop stop-opacity="1" stop-color="rgb(88.816833%, 22.917175%, 30.198669%)" offset="0.46875"/><stop stop-opacity="1" stop-color="rgb(88.656616%, 22.653198%, 30.335999%)" offset="0.484375"/><stop stop-opacity="1" stop-color="rgb(88.598633%, 22.445679%, 30.535889%)" offset="0.5"/><stop stop-opacity="1" stop-color="rgb(88.598633%, 22.271729%, 30.599976%)" offset="0.515625"/><stop stop-opacity="1" stop-color="rgb(88.475037%, 21.948242%, 30.722046%)" offset="0.53125"/><stop stop-opacity="1" stop-color="rgb(88.275146%, 21.560669%, 30.921936%)" offset="0.546875"/><stop stop-opacity="1" stop-color="rgb(88.198853%, 21.273804%, 31.010437%)" offset="0.554687"/><stop stop-opacity="1" stop-color="rgb(88.198853%, 21.075439%, 31.123352%)" offset="0.5625"/><stop stop-opacity="1" stop-color="rgb(88.18512%, 20.870972%, 31.312561%)" offset="0.570312"/><stop stop-opacity="1" stop-color="rgb(88.075256%, 20.674133%, 31.399536%)" offset="0.578125"/><stop stop-opacity="1" stop-color="rgb(87.889099%, 20.483398%, 31.40564%)" offset="0.585938"/><stop stop-opacity="1" stop-color="rgb(87.799072%, 20.285034%, 31.512451%)" offset="0.59375"/><stop stop-opacity="1" stop-color="rgb(87.799072%, 20.080566%, 31.706238%)" offset="0.601562"/><stop stop-opacity="1" stop-color="rgb(87.799072%, 19.883728%, 31.799316%)" offset="0.609375"/><stop stop-opacity="1" stop-color="rgb(87.799072%, 19.596863%, 31.895447%)" offset="0.625"/><stop stop-opacity="1" stop-color="rgb(87.799072%, 19.309998%, 32.087708%)" offset="0.632812"/><stop stop-opacity="1" stop-color="rgb(87.728882%, 19.113159%, 32.191467%)" offset="0.640625"/><stop stop-opacity="1" stop-color="rgb(87.579346%, 18.90564%, 32.199097%)" offset="0.65625"/><stop stop-opacity="1" stop-color="rgb(87.5%, 18.716431%, 32.260132%)" offset="0.671875"/><stop stop-opacity="1" stop-color="rgb(87.5%, 18.537903%, 32.394409%)" offset="0.679688"/><stop stop-opacity="1" stop-color="rgb(87.420654%, 18.341064%, 32.48291%)" offset="0.6875"/><stop stop-opacity="1" stop-color="rgb(87.239075%, 18.139648%, 32.499695%)" offset="0.695312"/><stop stop-opacity="1" stop-color="rgb(87.117004%, 17.939758%, 32.577515%)" offset="0.703125"/><stop stop-opacity="1" stop-color="rgb(87.098694%, 17.6651%, 32.777405%)" offset="0.71875"/><stop stop-opacity="1" stop-color="rgb(87.098694%, 17.320251%, 32.971191%)" offset="0.734375"/><stop stop-opacity="1" stop-color="rgb(87.034607%, 16.96167%, 33.171082%)" offset="0.75"/><stop stop-opacity="1" stop-color="rgb(86.834717%, 16.575623%, 33.358765%)" offset="0.765625"/><stop stop-opacity="1" stop-color="rgb(86.698914%, 16.278076%, 33.518982%)" offset="0.773438"/><stop stop-opacity="1" stop-color="rgb(86.698914%, 16.078186%, 33.659363%)" offset="0.78125"/><stop stop-opacity="1" stop-color="rgb(86.698914%, 15.788269%, 33.699036%)" offset="0.796875"/><stop stop-opacity="1" stop-color="rgb(86.654663%, 15.447998%, 33.743286%)" offset="0.8125"/><stop stop-opacity="1" stop-color="rgb(86.454773%, 15.254211%, 33.943176%)" offset="0.828125"/><stop stop-opacity="1" stop-color="rgb(86.299133%, 15.014648%, 34.138489%)" offset="0.84375"/><stop stop-opacity="1" stop-color="rgb(86.299133%, 14.718628%, 34.280396%)" offset="0.851563"/><stop stop-opacity="1" stop-color="rgb(86.257935%, 14.517212%, 34.440613%)" offset="0.859375"/><stop stop-opacity="1" stop-color="rgb(86.058044%, 14.225769%, 34.53064%)" offset="0.875"/><stop stop-opacity="1" stop-color="rgb(85.899353%, 13.841248%, 34.73053%)" offset="0.890625"/><stop stop-opacity="1" stop-color="rgb(85.899353%, 13.546753%, 34.899902%)" offset="0.898438"/><stop stop-opacity="1" stop-color="rgb(85.899353%, 13.343811%, 34.925842%)" offset="0.90625"/><stop stop-opacity="1" stop-color="rgb(85.881042%, 13.052368%, 35.125732%)" offset="0.921875"/><stop stop-opacity="1" stop-color="rgb(85.681152%, 12.672424%, 35.299683%)" offset="0.9375"/><stop stop-opacity="1" stop-color="rgb(85.499573%, 12.327576%, 35.313416%)" offset="0.953125"/><stop stop-opacity="1" stop-color="rgb(85.493469%, 11.979675%, 35.513306%)" offset="0.96875"/><stop stop-opacity="1" stop-color="rgb(85.386658%, 11.686707%, 35.699463%)" offset="0.976562"/><stop stop-opacity="1" stop-color="rgb(85.191345%, 11.482239%, 35.707092%)" offset="0.984375"/><stop stop-opacity="1" stop-color="rgb(85.099792%, 11.18927%, 35.906982%)" offset="1"/></linearGradient><clipPath id="id5"><path d="M 154.207031 128.933594 L 200.402344 128.933594 L 200.402344 184.433594 L 154.207031 184.433594 Z M 154.207031 128.933594 " clip-rule="nonzero"/></clipPath><clipPath id="id6"><path d="M 200.183594 173.769531 C 198.964844 180.753906 192.355469 185.417969 185.429688 184.1875 C 178.5 182.957031 173.875 176.292969 175.09375 169.308594 C 176.316406 162.324219 171.691406 155.660156 164.761719 154.429688 C 157.835938 153.199219 153.207031 146.535156 154.429688 139.550781 C 155.652344 132.5625 162.261719 127.898438 169.1875 129.128906 C 176.113281 130.363281 180.742188 137.023438 179.519531 144.011719 C 178.296875 150.996094 182.925781 157.65625 189.851562 158.890625 C 196.78125 160.121094 201.40625 166.785156 200.183594 173.769531 Z M 200.183594 173.769531 " clip-rule="nonzero"/></clipPath><clipPath id="id7"><path d="M 200.183594 173.769531 C 198.964844 180.753906 192.355469 185.417969 185.429688 184.1875 C 178.5 182.957031 173.875 176.292969 175.09375 169.308594 C 176.316406 162.324219 171.691406 155.660156 164.761719 154.429688 C 157.835938 153.199219 153.207031 146.535156 154.429688 139.550781 C 155.652344 132.5625 162.261719 127.898438 169.1875 129.128906 C 176.113281 130.363281 180.742188 137.023438 179.519531 144.011719 C 178.296875 150.996094 182.925781 157.65625 189.851562 158.890625 C 196.78125 160.121094 201.40625 166.785156 200.183594 173.769531 " clip-rule="nonzero"/></clipPath><linearGradient x1="-0.000556021" gradientTransform="matrix(46.145808, 0, 0, 46.307151, 154.234559, 156.659236)" y1="0" x2="1.000447" gradientUnits="userSpaceOnUse" y2="0" id="id8"><stop stop-opacity="1" stop-color="rgb(91.799927%, 32.499695%, 25.498962%)" offset="0"/><stop stop-opacity="1" stop-color="rgb(91.755676%, 32.305908%, 25.543213%)" offset="0.03125"/><stop stop-opacity="1" stop-color="rgb(91.55426%, 31.924438%, 25.773621%)" offset="0.0625"/><stop stop-opacity="1" stop-color="rgb(91.398621%, 31.549072%, 26.12915%)" offset="0.078125"/><stop stop-opacity="1" stop-color="rgb(91.398621%, 31.260681%, 26.298523%)" offset="0.0859375"/><stop stop-opacity="1" stop-color="rgb(91.38031%, 31.062317%, 26.298523%)" offset="0.09375"/><stop stop-opacity="1" stop-color="rgb(91.18042%, 30.775452%, 26.303101%)" offset="0.109375"/><stop stop-opacity="1" stop-color="rgb(90.99884%, 30.401611%, 26.496887%)" offset="0.125"/><stop stop-opacity="1" stop-color="rgb(90.99884%, 30.114746%, 26.6922%)" offset="0.132812"/><stop stop-opacity="1" stop-color="rgb(90.99884%, 29.914856%, 26.699829%)" offset="0.140625"/><stop stop-opacity="1" stop-color="rgb(90.99884%, 29.627991%, 26.878357%)" offset="0.15625"/><stop stop-opacity="1" stop-color="rgb(90.83252%, 29.418945%, 27.078247%)" offset="0.171875"/><stop stop-opacity="1" stop-color="rgb(90.632629%, 29.234314%, 27.262878%)" offset="0.1875"/><stop stop-opacity="1" stop-color="rgb(90.59906%, 28.88031%, 27.462769%)" offset="0.203125"/><stop stop-opacity="1" stop-color="rgb(90.59906%, 28.594971%, 27.49939%)" offset="0.210937"/><stop stop-opacity="1" stop-color="rgb(90.59906%, 28.398132%, 27.49939%)" offset="0.21875"/><stop stop-opacity="1" stop-color="rgb(90.458679%, 28.108215%, 27.604675%)" offset="0.234375"/><stop stop-opacity="1" stop-color="rgb(90.258789%, 27.761841%, 27.754211%)" offset="0.25"/><stop stop-opacity="1" stop-color="rgb(90.19928%, 27.430725%, 27.922058%)" offset="0.265625"/><stop stop-opacity="1" stop-color="rgb(90.19928%, 27.061462%, 28.121948%)" offset="0.28125"/><stop stop-opacity="1" stop-color="rgb(90.097046%, 26.783752%, 28.302002%)" offset="0.296875"/><stop stop-opacity="1" stop-color="rgb(89.897156%, 26.603699%, 28.501892%)" offset="0.3125"/><stop stop-opacity="1" stop-color="rgb(89.7995%, 26.313782%, 28.599548%)" offset="0.328125"/><stop stop-opacity="1" stop-color="rgb(89.717102%, 25.927734%, 28.68042%)" offset="0.34375"/><stop stop-opacity="1" stop-color="rgb(89.517212%, 25.540161%, 28.88031%)" offset="0.359375"/><stop stop-opacity="1" stop-color="rgb(89.399719%, 25.158691%, 29.06189%)" offset="0.375"/><stop stop-opacity="1" stop-color="rgb(89.399719%, 24.781799%, 29.26178%)" offset="0.390625"/><stop stop-opacity="1" stop-color="rgb(89.399719%, 24.490356%, 29.399109%)" offset="0.398437"/><stop stop-opacity="1" stop-color="rgb(89.347839%, 24.293518%, 29.449463%)" offset="0.40625"/><stop stop-opacity="1" stop-color="rgb(89.147949%, 24.009705%, 29.649353%)" offset="0.421875"/><stop stop-opacity="1" stop-color="rgb(88.999939%, 23.660278%, 29.826355%)" offset="0.4375"/><stop stop-opacity="1" stop-color="rgb(88.973999%, 23.474121%, 30.026245%)" offset="0.453125"/><stop stop-opacity="1" stop-color="rgb(88.774109%, 23.260498%, 30.198669%)" offset="0.46875"/><stop stop-opacity="1" stop-color="rgb(88.598633%, 22.972107%, 30.198669%)" offset="0.476562"/><stop stop-opacity="1" stop-color="rgb(88.598633%, 22.776794%, 30.210876%)" offset="0.484375"/><stop stop-opacity="1" stop-color="rgb(88.598633%, 22.540283%, 30.410767%)" offset="0.5"/><stop stop-opacity="1" stop-color="rgb(88.598633%, 22.212219%, 30.59845%)" offset="0.515625"/><stop stop-opacity="1" stop-color="rgb(88.513184%, 21.92688%, 30.685425%)" offset="0.523437"/><stop stop-opacity="1" stop-color="rgb(88.327026%, 21.72699%, 30.870056%)" offset="0.53125"/><stop stop-opacity="1" stop-color="rgb(88.212585%, 21.440125%, 30.984497%)" offset="0.546875"/><stop stop-opacity="1" stop-color="rgb(88.198853%, 21.064758%, 31.159973%)" offset="0.5625"/><stop stop-opacity="1" stop-color="rgb(88.140869%, 20.779419%, 31.359863%)" offset="0.570312"/><stop stop-opacity="1" stop-color="rgb(87.982178%, 20.582581%, 31.399536%)" offset="0.578125"/><stop stop-opacity="1" stop-color="rgb(87.840271%, 20.292664%, 31.547546%)" offset="0.59375"/><stop stop-opacity="1" stop-color="rgb(87.799072%, 20.007324%, 31.747437%)" offset="0.601563"/><stop stop-opacity="1" stop-color="rgb(87.799072%, 19.810486%, 31.799316%)" offset="0.609375"/><stop stop-opacity="1" stop-color="rgb(87.799072%, 19.520569%, 31.799316%)" offset="0.625"/><stop stop-opacity="1" stop-color="rgb(87.70752%, 19.264221%, 31.921387%)" offset="0.640625"/><stop stop-opacity="1" stop-color="rgb(87.557983%, 19.081116%, 32.121277%)" offset="0.65625"/><stop stop-opacity="1" stop-color="rgb(87.5%, 18.772888%, 32.281494%)" offset="0.671875"/><stop stop-opacity="1" stop-color="rgb(87.5%, 18.392944%, 32.43103%)" offset="0.6875"/><stop stop-opacity="1" stop-color="rgb(87.409973%, 18.013%, 32.588196%)" offset="0.703125"/><stop stop-opacity="1" stop-color="rgb(87.208557%, 17.64679%, 32.788086%)" offset="0.71875"/><stop stop-opacity="1" stop-color="rgb(87.098694%, 17.311096%, 32.974243%)" offset="0.734375"/><stop stop-opacity="1" stop-color="rgb(87.028503%, 16.952515%, 33.174133%)" offset="0.75"/><stop stop-opacity="1" stop-color="rgb(86.828613%, 16.569519%, 33.357239%)" offset="0.765625"/><stop stop-opacity="1" stop-color="rgb(86.698914%, 16.192627%, 33.557129%)" offset="0.78125"/><stop stop-opacity="1" stop-color="rgb(86.698914%, 15.90271%, 33.699036%)" offset="0.789063"/><stop stop-opacity="1" stop-color="rgb(86.653137%, 15.705872%, 33.699036%)" offset="0.796875"/><stop stop-opacity="1" stop-color="rgb(86.453247%, 15.422058%, 33.731079%)" offset="0.8125"/><stop stop-opacity="1" stop-color="rgb(86.299133%, 15.045166%, 33.930969%)" offset="0.828125"/><stop stop-opacity="1" stop-color="rgb(86.299133%, 14.677429%, 34.118652%)" offset="0.84375"/><stop stop-opacity="1" stop-color="rgb(86.291504%, 14.491272%, 34.318542%)" offset="0.859375"/><stop stop-opacity="1" stop-color="rgb(86.184692%, 14.38446%, 34.498596%)" offset="0.867188"/><stop stop-opacity="1" stop-color="rgb(85.992432%, 14.186096%, 34.5047%)" offset="0.875"/><stop stop-opacity="1" stop-color="rgb(85.899353%, 13.899231%, 34.698486%)" offset="0.890625"/><stop stop-opacity="1" stop-color="rgb(85.899353%, 13.523865%, 34.892273%)" offset="0.90625"/><stop stop-opacity="1" stop-color="rgb(85.820007%, 13.238525%, 34.979248%)" offset="0.914062"/><stop stop-opacity="1" stop-color="rgb(85.639954%, 13.040161%, 35.157776%)" offset="0.921875"/><stop stop-opacity="1" stop-color="rgb(85.519409%, 12.75177%, 35.27832%)" offset="0.9375"/><stop stop-opacity="1" stop-color="rgb(85.499573%, 12.414551%, 35.453796%)" offset="0.953125"/><stop stop-opacity="1" stop-color="rgb(85.499573%, 12.080383%, 35.653687%)" offset="0.96875"/><stop stop-opacity="1" stop-color="rgb(85.35614%, 11.705017%, 35.699463%)" offset="0.984375"/><stop stop-opacity="1" stop-color="rgb(85.15625%, 11.38916%, 35.765076%)" offset="1"/></linearGradient><clipPath id="id9"><path d="M 143.324219 158.746094 L 168.800781 158.746094 L 168.800781 184.433594 L 143.324219 184.433594 Z M 143.324219 158.746094 " clip-rule="nonzero"/></clipPath><clipPath id="id10"><path d="M 168.800781 171.589844 C 168.800781 178.679688 163.097656 184.433594 156.0625 184.433594 C 149.027344 184.433594 143.324219 178.679688 143.324219 171.589844 C 143.324219 164.496094 149.027344 158.746094 156.0625 158.746094 C 163.097656 158.746094 168.800781 164.496094 168.800781 171.589844 Z M 168.800781 171.589844 " clip-rule="nonzero"/></clipPath><clipPath id="id11"><path d="M 168.800781 171.589844 C 168.800781 178.679688 163.097656 184.433594 156.0625 184.433594 C 149.027344 184.433594 143.324219 178.679688 143.324219 171.589844 C 143.324219 164.496094 149.027344 158.746094 156.0625 158.746094 C 163.097656 158.746094 168.800781 164.496094 168.800781 171.589844 " clip-rule="nonzero"/></clipPath><linearGradient x1="0.0000000325064" gradientTransform="matrix(25.476352, 0, 0, 25.565427, 143.324555, 171.588656)" y1="0" x2="0.999998" gradientUnits="userSpaceOnUse" y2="0" id="id12"><stop stop-opacity="1" stop-color="rgb(91.799927%, 32.499695%, 25.498962%)" offset="0"/><stop stop-opacity="1" stop-color="rgb(91.799927%, 32.499695%, 25.498962%)" offset="0.015625"/><stop stop-opacity="1" stop-color="rgb(91.799927%, 32.424927%, 25.598145%)" offset="0.0234375"/><stop stop-opacity="1" stop-color="rgb(91.795349%, 32.270813%, 25.798035%)" offset="0.03125"/><stop stop-opacity="1" stop-color="rgb(91.596985%, 31.997681%, 25.898743%)" offset="0.046875"/><stop stop-opacity="1" stop-color="rgb(91.400146%, 31.607056%, 25.898743%)" offset="0.0625"/><stop stop-opacity="1" stop-color="rgb(91.398621%, 31.40564%, 25.996399%)" offset="0.0703125"/><stop stop-opacity="1" stop-color="rgb(91.398621%, 31.39801%, 26.196289%)" offset="0.078125"/><stop stop-opacity="1" stop-color="rgb(91.398621%, 31.201172%, 26.298523%)" offset="0.09375"/><stop stop-opacity="1" stop-color="rgb(91.297913%, 30.900574%, 26.298523%)" offset="0.101563"/><stop stop-opacity="1" stop-color="rgb(91.098022%, 30.693054%, 26.303101%)" offset="0.109375"/><stop stop-opacity="1" stop-color="rgb(90.99884%, 30.393982%, 26.504517%)" offset="0.125"/><stop stop-opacity="1" stop-color="rgb(90.99884%, 30.003357%, 26.699829%)" offset="0.140625"/><stop stop-opacity="1" stop-color="rgb(90.99884%, 29.803467%, 26.799011%)" offset="0.148438"/><stop stop-opacity="1" stop-color="rgb(90.995789%, 29.795837%, 26.998901%)" offset="0.15625"/><stop stop-opacity="1" stop-color="rgb(90.797424%, 29.597473%, 27.099609%)" offset="0.171875"/><stop stop-opacity="1" stop-color="rgb(90.600586%, 29.206848%, 27.099609%)" offset="0.1875"/><stop stop-opacity="1" stop-color="rgb(90.59906%, 28.907776%, 27.197266%)" offset="0.195312"/><stop stop-opacity="1" stop-color="rgb(90.59906%, 28.700256%, 27.397156%)" offset="0.203125"/><stop stop-opacity="1" stop-color="rgb(90.59906%, 28.401184%, 27.49939%)" offset="0.21875"/><stop stop-opacity="1" stop-color="rgb(90.498352%, 28.100586%, 27.574158%)" offset="0.226562"/><stop stop-opacity="1" stop-color="rgb(90.298462%, 27.897644%, 27.72522%)" offset="0.234375"/><stop stop-opacity="1" stop-color="rgb(90.19928%, 27.799988%, 27.799988%)" offset="0.25"/><stop stop-opacity="1" stop-color="rgb(90.19928%, 27.653503%, 27.993774%)" offset="0.265625"/><stop stop-opacity="1" stop-color="rgb(90.19928%, 27.403259%, 28.193665%)" offset="0.273438"/><stop stop-opacity="1" stop-color="rgb(90.196228%, 27.197266%, 28.199768%)" offset="0.28125"/><stop stop-opacity="1" stop-color="rgb(89.997864%, 26.898193%, 28.199768%)" offset="0.296875"/><stop stop-opacity="1" stop-color="rgb(89.801025%, 26.507568%, 28.393555%)" offset="0.3125"/><stop stop-opacity="1" stop-color="rgb(89.7995%, 26.208496%, 28.593445%)" offset="0.320313"/><stop stop-opacity="1" stop-color="rgb(89.7995%, 25.999451%, 28.601074%)" offset="0.328125"/><stop stop-opacity="1" stop-color="rgb(89.7995%, 25.700378%, 28.797913%)" offset="0.34375"/><stop stop-opacity="1" stop-color="rgb(89.698792%, 25.502014%, 28.996277%)" offset="0.351562"/><stop stop-opacity="1" stop-color="rgb(89.498901%, 25.494385%, 28.999329%)" offset="0.359375"/><stop stop-opacity="1" stop-color="rgb(89.399719%, 25.294495%, 28.999329%)" offset="0.375"/><stop stop-opacity="1" stop-color="rgb(89.399719%, 24.90387%, 29.194641%)" offset="0.390625"/><stop stop-opacity="1" stop-color="rgb(89.300537%, 24.604797%, 29.394531%)" offset="0.398438"/><stop stop-opacity="1" stop-color="rgb(89.100647%, 24.397278%, 29.402161%)" offset="0.40625"/><stop stop-opacity="1" stop-color="rgb(88.999939%, 24.098206%, 29.600525%)" offset="0.421875"/><stop stop-opacity="1" stop-color="rgb(88.999939%, 23.707581%, 29.797363%)" offset="0.4375"/><stop stop-opacity="1" stop-color="rgb(88.999939%, 23.408508%, 29.896545%)" offset="0.445313"/><stop stop-opacity="1" stop-color="rgb(88.998413%, 23.200989%, 30.096436%)" offset="0.453125"/><stop stop-opacity="1" stop-color="rgb(88.801575%, 23.098755%, 30.198669%)" offset="0.46875"/><stop stop-opacity="1" stop-color="rgb(88.601685%, 22.998047%, 30.198669%)" offset="0.476562"/><stop stop-opacity="1" stop-color="rgb(88.598633%, 22.795105%, 30.203247%)" offset="0.484375"/><stop stop-opacity="1" stop-color="rgb(88.598633%, 22.546387%, 30.403137%)" offset="0.5"/><stop stop-opacity="1" stop-color="rgb(88.598633%, 22.20459%, 30.59845%)" offset="0.515625"/><stop stop-opacity="1" stop-color="rgb(88.499451%, 21.903992%, 30.697632%)" offset="0.523438"/><stop stop-opacity="1" stop-color="rgb(88.299561%, 21.696472%, 30.897522%)" offset="0.53125"/><stop stop-opacity="1" stop-color="rgb(88.198853%, 21.3974%, 30.999756%)" offset="0.546875"/><stop stop-opacity="1" stop-color="rgb(88.198853%, 21.006775%, 31.193542%)" offset="0.5625"/><stop stop-opacity="1" stop-color="rgb(88.198853%, 20.707703%, 31.393433%)" offset="0.570312"/><stop stop-opacity="1" stop-color="rgb(88.197327%, 20.501709%, 31.399536%)" offset="0.578125"/><stop stop-opacity="1" stop-color="rgb(88.000488%, 20.399475%, 31.399536%)" offset="0.59375"/><stop stop-opacity="1" stop-color="rgb(87.802124%, 20.298767%, 31.500244%)" offset="0.601562"/><stop stop-opacity="1" stop-color="rgb(87.799072%, 20.094299%, 31.700134%)" offset="0.609375"/><stop stop-opacity="1" stop-color="rgb(87.799072%, 19.795227%, 31.799316%)" offset="0.625"/><stop stop-opacity="1" stop-color="rgb(87.652588%, 19.404602%, 31.994629%)" offset="0.640625"/><stop stop-opacity="1" stop-color="rgb(87.503052%, 19.104004%, 32.194519%)" offset="0.648438"/><stop stop-opacity="1" stop-color="rgb(87.5%, 18.896484%, 32.200623%)" offset="0.65625"/><stop stop-opacity="1" stop-color="rgb(87.5%, 18.597412%, 32.350159%)" offset="0.671875"/><stop stop-opacity="1" stop-color="rgb(87.5%, 18.206787%, 32.498169%)" offset="0.6875"/><stop stop-opacity="1" stop-color="rgb(87.402344%, 17.907715%, 32.499695%)" offset="0.695312"/><stop stop-opacity="1" stop-color="rgb(87.200928%, 17.700195%, 32.501221%)" offset="0.703125"/><stop stop-opacity="1" stop-color="rgb(87.098694%, 17.449951%, 32.698059%)" offset="0.71875"/><stop stop-opacity="1" stop-color="rgb(87.098694%, 17.295837%, 32.901001%)" offset="0.734375"/><stop stop-opacity="1" stop-color="rgb(87.098694%, 17.094421%, 33.103943%)" offset="0.75"/><stop stop-opacity="1" stop-color="rgb(86.903381%, 16.703796%, 33.299255%)" offset="0.765625"/><stop stop-opacity="1" stop-color="rgb(86.703491%, 16.404724%, 33.398438%)" offset="0.773438"/><stop stop-opacity="1" stop-color="rgb(86.698914%, 16.197205%, 33.598328%)" offset="0.78125"/><stop stop-opacity="1" stop-color="rgb(86.698914%, 15.898132%, 33.699036%)" offset="0.796875"/><stop stop-opacity="1" stop-color="rgb(86.505127%, 15.507507%, 33.892822%)" offset="0.8125"/><stop stop-opacity="1" stop-color="rgb(86.305237%, 15.208435%, 34.092712%)" offset="0.820312"/><stop stop-opacity="1" stop-color="rgb(86.299133%, 14.99939%, 34.098816%)" offset="0.828125"/><stop stop-opacity="1" stop-color="rgb(86.299133%, 14.700317%, 34.098816%)" offset="0.84375"/><stop stop-opacity="1" stop-color="rgb(86.299133%, 14.401245%, 34.199524%)" offset="0.851562"/><stop stop-opacity="1" stop-color="rgb(86.294556%, 14.198303%, 34.399414%)" offset="0.859375"/><stop stop-opacity="1" stop-color="rgb(86.094666%, 14.099121%, 34.498596%)" offset="0.875"/><stop stop-opacity="1" stop-color="rgb(85.899353%, 13.903809%, 34.693909%)" offset="0.890625"/><stop stop-opacity="1" stop-color="rgb(85.899353%, 13.604736%, 34.893799%)" offset="0.898438"/><stop stop-opacity="1" stop-color="rgb(85.899353%, 13.397217%, 34.902954%)" offset="0.90625"/><stop stop-opacity="1" stop-color="rgb(85.899353%, 13.098145%, 35.101318%)" offset="0.921875"/><stop stop-opacity="1" stop-color="rgb(85.705566%, 12.70752%, 35.298157%)" offset="0.9375"/><stop stop-opacity="1" stop-color="rgb(85.505676%, 12.353516%, 35.301208%)" offset="0.953125"/><stop stop-opacity="1" stop-color="rgb(85.499573%, 12.001038%, 35.498047%)" offset="0.96875"/><stop stop-opacity="1" stop-color="rgb(85.398865%, 11.701965%, 35.696411%)" offset="0.976562"/><stop stop-opacity="1" stop-color="rgb(85.198975%, 11.49292%, 35.704041%)" offset="0.984375"/><stop stop-opacity="1" stop-color="rgb(85.099792%, 11.193848%, 35.903931%)" offset="1"/></linearGradient></defs><rect x="-37.5" width="450" fill="#ffffff" y="-37.499999" height="449.999989" fill-opacity="1"/><rect x="-37.5" width="450" fill="#f2f2f2" y="-37.499999" height="449.999989" fill-opacity="1"/><rect x="-37.5" width="450" fill="#ffffff" y="-37.499999" height="449.999989" fill-opacity="1"/><rect x="-37.5" width="450" fill="#f2f2f2" y="-37.499999" height="449.999989" fill-opacity="1"/><g clip-path="url(#id1)"><g clip-path="url(#id2)"><g clip-path="url(#id3)"><path fill="url(#id4)" d="M 185.625 128.933594 L 185.625 184.433594 L 231.816406 184.433594 L 231.816406 128.933594 Z M 185.625 128.933594 " fill-rule="nonzero"/></g></g></g><g clip-path="url(#id5)"><g clip-path="url(#id6)"><g clip-path="url(#id7)"><path fill="url(#id8)" d="M 154.207031 128.933594 L 154.207031 184.433594 L 200.402344 184.433594 L 200.402344 128.933594 Z M 154.207031 128.933594 " fill-rule="nonzero"/></g></g></g><g clip-path="url(#id9)"><g clip-path="url(#id10)"><g clip-path="url(#id11)"><path fill="url(#id12)" d="M 143.324219 158.746094 L 143.324219 184.433594 L 168.800781 184.433594 L 168.800781 158.746094 Z M 143.324219 158.746094 " fill-rule="nonzero"/></g></g></g><g fill="#dd2757" fill-opacity="1"><g transform="translate(138.418487, 228.944047)"><g><path d="M 0.875 -18.296875 L 5.328125 -18.296875 L 5.328125 -17.328125 C 5.960938 -18.109375 6.835938 -18.5 7.953125 -18.5 C 9.367188 -18.5 10.351562 -18.023438 10.90625 -17.078125 C 11.46875 -16.128906 11.75 -14.8125 11.75 -13.125 L 11.75 -6.34375 C 11.75 -4.914062 11.664062 -3.742188 11.5 -2.828125 C 11.332031 -1.921875 10.960938 -1.1875 10.390625 -0.625 C 9.828125 -0.0703125 8.972656 0.203125 7.828125 0.203125 C 6.722656 0.203125 5.890625 -0.101562 5.328125 -0.71875 L 5.328125 3.65625 L 0.875 3.65625 Z M 6.375 -3.203125 C 6.769531 -3.203125 7.023438 -3.382812 7.140625 -3.75 C 7.265625 -4.113281 7.328125 -4.644531 7.328125 -5.34375 L 7.328125 -13.125 C 7.328125 -13.757812 7.265625 -14.242188 7.140625 -14.578125 C 7.023438 -14.910156 6.757812 -15.078125 6.34375 -15.078125 C 5.664062 -15.078125 5.328125 -14.441406 5.328125 -13.171875 L 5.328125 -5.15625 C 5.328125 -4.53125 5.394531 -4.046875 5.53125 -3.703125 C 5.675781 -3.367188 5.957031 -3.203125 6.375 -3.203125 Z M 6.375 -3.203125 "/></g></g></g><g fill="#dd2757" fill-opacity="1"><g transform="translate(154.591528, 228.944047)"><g><path d="M 6 0.203125 C 4.113281 0.203125 2.757812 -0.3125 1.9375 -1.34375 C 1.125 -2.382812 0.71875 -3.925781 0.71875 -5.96875 L 0.71875 -13.328125 C 0.71875 -15.003906 1.203125 -16.285156 2.171875 -17.171875 C 3.140625 -18.054688 4.488281 -18.5 6.21875 -18.5 C 9.738281 -18.5 11.5 -16.773438 11.5 -13.328125 L 11.5 -12 C 11.5 -10.664062 11.484375 -9.582031 11.453125 -8.75 L 5.09375 -8.75 L 5.09375 -5.203125 C 5.09375 -4.566406 5.160156 -4.066406 5.296875 -3.703125 C 5.429688 -3.347656 5.71875 -3.171875 6.15625 -3.171875 C 6.488281 -3.171875 6.722656 -3.269531 6.859375 -3.46875 C 7.003906 -3.675781 7.085938 -3.90625 7.109375 -4.15625 C 7.140625 -4.414062 7.15625 -4.796875 7.15625 -5.296875 L 7.15625 -7.078125 L 11.5 -7.078125 L 11.5 -6.03125 C 11.5 -3.894531 11.085938 -2.320312 10.265625 -1.3125 C 9.441406 -0.300781 8.019531 0.203125 6 0.203125 Z M 7.15625 -10.921875 L 7.15625 -13.28125 C 7.15625 -14.59375 6.828125 -15.25 6.171875 -15.25 C 5.441406 -15.25 5.078125 -14.59375 5.078125 -13.28125 L 5.078125 -10.921875 Z M 7.15625 -10.921875 "/></g></g></g><g fill="#dd2757" fill-opacity="1"><g transform="translate(170.46462, 228.944047)"><g><path d="M 4.65625 0.203125 C 3.5 0.203125 2.703125 -0.0351562 2.265625 -0.515625 C 1.835938 -1.003906 1.625 -1.78125 1.625 -2.84375 L 1.625 -14.28125 L 0.40625 -14.28125 L 0.40625 -17.59375 L 1.625 -17.59375 L 1.625 -21.46875 L 5.875 -21.46875 L 5.875 -17.59375 L 7.125 -17.59375 L 7.125 -14.28125 L 5.875 -14.28125 L 5.875 -4 C 5.875 -3.6875 5.898438 -3.453125 5.953125 -3.296875 C 6.003906 -3.148438 6.132812 -3.078125 6.34375 -3.078125 C 6.507812 -3.078125 6.664062 -3.082031 6.8125 -3.09375 C 6.96875 -3.113281 7.070312 -3.125 7.125 -3.125 L 7.125 -0.125 C 6.875 -0.0625 6.507812 0.00390625 6.03125 0.078125 C 5.5625 0.160156 5.101562 0.203125 4.65625 0.203125 Z M 4.65625 0.203125 "/></g></g></g><g fill="#dd2757" fill-opacity="1"><g transform="translate(181.763428, 228.944047)"><g><path d="M 0.84375 -19.53125 L 0.84375 -22.578125 L 5.21875 -22.578125 L 5.21875 -19.53125 Z M 0.84375 0 L 0.84375 -18.296875 L 5.21875 -18.296875 L 5.21875 0 Z M 0.84375 0 "/></g></g></g><g fill="#dd2757" fill-opacity="1"><g transform="translate(191.512489, 228.944047)"><g><path d="M 4.65625 0.203125 C 3.5 0.203125 2.703125 -0.0351562 2.265625 -0.515625 C 1.835938 -1.003906 1.625 -1.78125 1.625 -2.84375 L 1.625 -14.28125 L 0.40625 -14.28125 L 0.40625 -17.59375 L 1.625 -17.59375 L 1.625 -21.46875 L 5.875 -21.46875 L 5.875 -17.59375 L 7.125 -17.59375 L 7.125 -14.28125 L 5.875 -14.28125 L 5.875 -4 C 5.875 -3.6875 5.898438 -3.453125 5.953125 -3.296875 C 6.003906 -3.148438 6.132812 -3.078125 6.34375 -3.078125 C 6.507812 -3.078125 6.664062 -3.082031 6.8125 -3.09375 C 6.96875 -3.113281 7.070312 -3.125 7.125 -3.125 L 7.125 -0.125 C 6.875 -0.0625 6.507812 0.00390625 6.03125 0.078125 C 5.5625 0.160156 5.101562 0.203125 4.65625 0.203125 Z M 4.65625 0.203125 "/></g></g></g><g fill="#dd2757" fill-opacity="1"><g transform="translate(202.811297, 228.944047)"><g><path d="M 6.203125 0.203125 C 2.546875 0.203125 0.71875 -1.6875 0.71875 -5.46875 L 0.71875 -12.828125 C 0.71875 -14.554688 1.207031 -15.929688 2.1875 -16.953125 C 3.164062 -17.984375 4.503906 -18.5 6.203125 -18.5 C 7.898438 -18.5 9.234375 -17.984375 10.203125 -16.953125 C 11.179688 -15.929688 11.671875 -14.554688 11.671875 -12.828125 L 11.671875 -5.46875 C 11.671875 -1.6875 9.847656 0.203125 6.203125 0.203125 Z M 6.203125 -3.171875 C 6.546875 -3.171875 6.800781 -3.296875 6.96875 -3.546875 C 7.132812 -3.796875 7.21875 -4.140625 7.21875 -4.578125 L 7.21875 -13.53125 C 7.21875 -14.59375 6.878906 -15.125 6.203125 -15.125 C 5.515625 -15.125 5.171875 -14.59375 5.171875 -13.53125 L 5.171875 -4.578125 C 5.171875 -4.140625 5.253906 -3.796875 5.421875 -3.546875 C 5.585938 -3.296875 5.847656 -3.171875 6.203125 -3.171875 Z M 6.203125 -3.171875 "/></g></g></g><g fill="#dd2757" fill-opacity="1"><g transform="translate(218.909346, 228.944047)"><g><path d="M 1.28125 -14.171875 L 0.5 -14.171875 L 0.53125 -17.5 L 1.28125 -17.5 L 1.28125 -18.75 C 1.28125 -20.71875 2.257812 -21.703125 4.21875 -21.703125 C 5.15625 -21.703125 5.90625 -21.582031 6.46875 -21.34375 L 6.46875 -18.65625 C 6.300781 -18.695312 6.171875 -18.71875 6.078125 -18.71875 C 5.835938 -18.71875 5.6875 -18.632812 5.625 -18.46875 C 5.5625 -18.300781 5.53125 -18.050781 5.53125 -17.71875 L 5.53125 -17.5 L 6.46875 -17.5 L 6.46875 -14.125 L 5.625 -14.125 L 5.625 0 L 1.28125 0 Z M 1.28125 -14.171875 "/></g></g></g><g fill="#dd2757" fill-opacity="1"><g transform="translate(229.583261, 228.944047)"><g><path d="M 1.28125 -14.171875 L 0.5 -14.171875 L 0.53125 -17.5 L 1.28125 -17.5 L 1.28125 -18.75 C 1.28125 -20.71875 2.257812 -21.703125 4.21875 -21.703125 C 5.15625 -21.703125 5.90625 -21.582031 6.46875 -21.34375 L 6.46875 -18.65625 C 6.300781 -18.695312 6.171875 -18.71875 6.078125 -18.71875 C 5.835938 -18.71875 5.6875 -18.632812 5.625 -18.46875 C 5.5625 -18.300781 5.53125 -18.050781 5.53125 -17.71875 L 5.53125 -17.5 L 6.46875 -17.5 L 6.46875 -14.125 L 5.625 -14.125 L 5.625 0 L 1.28125 0 Z M 1.28125 -14.171875 "/></g></g></g><g fill="#000000" fill-opacity="1"><g transform="translate(149.841872, 242.444046)"><g><path d="M 2.21875 -7.953125 L 2.21875 0 L 1.140625 0 L 1.140625 -7.953125 Z M 2.21875 -7.953125 "/></g></g></g><g fill="#000000" fill-opacity="1"><g transform="translate(154.041506, 242.444046)"><g/></g></g><g fill="#000000" fill-opacity="1"><g transform="translate(158.362059, 242.444046)"><g><path d="M 5.640625 -8.53125 L 5.640625 0 L 4.609375 0 L 4.609375 -0.71875 C 4.390625 -0.457031 4.117188 -0.253906 3.796875 -0.109375 C 3.484375 0.0351562 3.132812 0.109375 2.75 0.109375 C 2.320312 0.109375 1.9375 0.0078125 1.59375 -0.1875 C 1.25 -0.394531 0.976562 -0.679688 0.78125 -1.046875 C 0.59375 -1.421875 0.5 -1.851562 0.5 -2.34375 C 0.5 -2.832031 0.597656 -3.257812 0.796875 -3.625 C 1.003906 -3.988281 1.285156 -4.265625 1.640625 -4.453125 C 2.003906 -4.640625 2.414062 -4.734375 2.875 -4.734375 C 3.21875 -4.734375 3.546875 -4.660156 3.859375 -4.515625 C 4.179688 -4.378906 4.4375 -4.1875 4.625 -3.9375 L 4.625 -8.53125 Z M 3.0625 -0.765625 C 3.457031 -0.765625 3.789062 -0.867188 4.0625 -1.078125 C 4.34375 -1.296875 4.523438 -1.585938 4.609375 -1.953125 L 4.609375 -2.8125 C 4.523438 -3.132812 4.335938 -3.398438 4.046875 -3.609375 C 3.765625 -3.816406 3.4375 -3.921875 3.0625 -3.921875 C 2.789062 -3.921875 2.535156 -3.851562 2.296875 -3.71875 C 2.066406 -3.582031 1.878906 -3.394531 1.734375 -3.15625 C 1.597656 -2.925781 1.53125 -2.660156 1.53125 -2.359375 C 1.53125 -2.054688 1.597656 -1.785156 1.734375 -1.546875 C 1.878906 -1.304688 2.066406 -1.113281 2.296875 -0.96875 C 2.535156 -0.832031 2.789062 -0.765625 3.0625 -0.765625 Z M 3.0625 -0.765625 "/></g></g></g><g fill="#000000" fill-opacity="1"><g transform="translate(165.727461, 242.444046)"><g><path d="M 0.5 -2.328125 C 0.5 -2.765625 0.601562 -3.171875 0.8125 -3.546875 C 1.03125 -3.921875 1.332031 -4.210938 1.71875 -4.421875 C 2.101562 -4.628906 2.539062 -4.734375 3.03125 -4.734375 C 3.507812 -4.734375 3.9375 -4.628906 4.3125 -4.421875 C 4.695312 -4.210938 4.992188 -3.921875 5.203125 -3.546875 C 5.410156 -3.179688 5.515625 -2.773438 5.515625 -2.328125 C 5.515625 -1.867188 5.410156 -1.453125 5.203125 -1.078125 C 4.992188 -0.710938 4.695312 -0.421875 4.3125 -0.203125 C 3.925781 0.00390625 3.488281 0.109375 3 0.109375 C 2.519531 0.109375 2.085938 0.0078125 1.703125 -0.1875 C 1.328125 -0.394531 1.03125 -0.679688 0.8125 -1.046875 C 0.601562 -1.410156 0.5 -1.835938 0.5 -2.328125 Z M 1.53125 -2.3125 C 1.53125 -2.019531 1.59375 -1.753906 1.71875 -1.515625 C 1.84375 -1.273438 2.015625 -1.082031 2.234375 -0.9375 C 2.460938 -0.800781 2.710938 -0.734375 2.984375 -0.734375 C 3.410156 -0.734375 3.765625 -0.882812 4.046875 -1.1875 C 4.328125 -1.488281 4.46875 -1.863281 4.46875 -2.3125 C 4.46875 -2.757812 4.328125 -3.132812 4.046875 -3.4375 C 3.765625 -3.738281 3.410156 -3.890625 2.984375 -3.890625 C 2.710938 -3.890625 2.460938 -3.816406 2.234375 -3.671875 C 2.015625 -3.535156 1.84375 -3.34375 1.71875 -3.09375 C 1.59375 -2.851562 1.53125 -2.59375 1.53125 -2.3125 Z M 1.53125 -2.3125 "/></g></g></g><g fill="#000000" fill-opacity="1"><g transform="translate(172.565232, 242.444046)"><g/></g></g><g fill="#000000" fill-opacity="1"><g transform="translate(176.885784, 242.444046)"><g><path d="M 2.171875 0.09375 C 1.835938 0.09375 1.519531 0.0351562 1.21875 -0.078125 C 0.914062 -0.191406 0.664062 -0.363281 0.46875 -0.59375 L 0.90625 -1.1875 C 1.09375 -1.007812 1.285156 -0.875 1.484375 -0.78125 C 1.691406 -0.6875 1.894531 -0.640625 2.09375 -0.640625 C 2.332031 -0.640625 2.53125 -0.6875 2.6875 -0.78125 C 2.84375 -0.875 2.921875 -1.019531 2.921875 -1.21875 C 2.921875 -1.375 2.867188 -1.5 2.765625 -1.59375 C 2.671875 -1.6875 2.5625 -1.753906 2.4375 -1.796875 C 2.320312 -1.847656 2.125 -1.914062 1.84375 -2 C 1.0625 -2.25 0.671875 -2.691406 0.671875 -3.328125 C 0.671875 -3.710938 0.8125 -4.039062 1.09375 -4.3125 C 1.375 -4.582031 1.769531 -4.71875 2.28125 -4.71875 C 2.601562 -4.71875 2.890625 -4.675781 3.140625 -4.59375 C 3.390625 -4.519531 3.617188 -4.394531 3.828125 -4.21875 L 3.421875 -3.59375 C 3.304688 -3.707031 3.15625 -3.800781 2.96875 -3.875 C 2.789062 -3.957031 2.625 -4 2.46875 -4 C 2.257812 -4 2.082031 -3.945312 1.9375 -3.84375 C 1.789062 -3.75 1.71875 -3.617188 1.71875 -3.453125 C 1.71875 -3.316406 1.765625 -3.203125 1.859375 -3.109375 C 1.953125 -3.015625 2.050781 -2.945312 2.15625 -2.90625 C 2.257812 -2.863281 2.460938 -2.796875 2.765625 -2.703125 C 3.140625 -2.578125 3.429688 -2.414062 3.640625 -2.21875 C 3.847656 -2.019531 3.953125 -1.753906 3.953125 -1.421875 C 3.953125 -0.984375 3.796875 -0.617188 3.484375 -0.328125 C 3.179688 -0.046875 2.742188 0.09375 2.171875 0.09375 Z M 2.171875 0.09375 "/></g></g></g><g fill="#000000" fill-opacity="1"><g transform="translate(182.217618, 242.444046)"><g><path d="M 0.5 -2.328125 C 0.5 -2.765625 0.601562 -3.171875 0.8125 -3.546875 C 1.03125 -3.921875 1.332031 -4.210938 1.71875 -4.421875 C 2.101562 -4.628906 2.539062 -4.734375 3.03125 -4.734375 C 3.507812 -4.734375 3.9375 -4.628906 4.3125 -4.421875 C 4.695312 -4.210938 4.992188 -3.921875 5.203125 -3.546875 C 5.410156 -3.179688 5.515625 -2.773438 5.515625 -2.328125 C 5.515625 -1.867188 5.410156 -1.453125 5.203125 -1.078125 C 4.992188 -0.710938 4.695312 -0.421875 4.3125 -0.203125 C 3.925781 0.00390625 3.488281 0.109375 3 0.109375 C 2.519531 0.109375 2.085938 0.0078125 1.703125 -0.1875 C 1.328125 -0.394531 1.03125 -0.679688 0.8125 -1.046875 C 0.601562 -1.410156 0.5 -1.835938 0.5 -2.328125 Z M 1.53125 -2.3125 C 1.53125 -2.019531 1.59375 -1.753906 1.71875 -1.515625 C 1.84375 -1.273438 2.015625 -1.082031 2.234375 -0.9375 C 2.460938 -0.800781 2.710938 -0.734375 2.984375 -0.734375 C 3.410156 -0.734375 3.765625 -0.882812 4.046875 -1.1875 C 4.328125 -1.488281 4.46875 -1.863281 4.46875 -2.3125 C 4.46875 -2.757812 4.328125 -3.132812 4.046875 -3.4375 C 3.765625 -3.738281 3.410156 -3.890625 2.984375 -3.890625 C 2.710938 -3.890625 2.460938 -3.816406 2.234375 -3.671875 C 2.015625 -3.535156 1.84375 -3.34375 1.71875 -3.09375 C 1.59375 -2.851562 1.53125 -2.59375 1.53125 -2.3125 Z M 1.53125 -2.3125 "/></g></g></g><g fill="#000000" fill-opacity="1"><g transform="translate(189.055388, 242.444046)"><g><path d="M 1.265625 -3.640625 L 0.484375 -3.640625 L 0.484375 -4.5625 L 1.265625 -4.5625 L 1.265625 -6.484375 C 1.265625 -7.140625 1.414062 -7.644531 1.71875 -8 C 2.019531 -8.351562 2.457031 -8.53125 3.03125 -8.53125 C 3.195312 -8.53125 3.367188 -8.503906 3.546875 -8.453125 C 3.734375 -8.398438 3.894531 -8.332031 4.03125 -8.25 L 3.59375 -7.5 C 3.488281 -7.613281 3.335938 -7.671875 3.140625 -7.671875 C 2.859375 -7.671875 2.644531 -7.578125 2.5 -7.390625 C 2.351562 -7.203125 2.28125 -6.894531 2.28125 -6.46875 L 2.28125 -4.5625 L 3.734375 -4.5625 L 3.734375 -3.640625 L 2.28125 -3.640625 L 2.28125 0 L 1.265625 0 Z M 1.265625 -3.640625 "/></g></g></g><g fill="#000000" fill-opacity="1"><g transform="translate(194.079444, 242.444046)"><g><path d="M 2.359375 -6.5625 L 2.359375 -4.546875 L 3.609375 -4.546875 L 3.609375 -3.734375 L 2.359375 -3.734375 L 2.359375 0 L 1.328125 0 L 1.328125 -3.734375 L 0.5 -3.734375 L 0.5 -4.546875 L 1.328125 -4.546875 L 1.328125 -6.5625 Z M 2.359375 -6.5625 "/></g></g></g><g fill="#000000" fill-opacity="1"><g transform="translate(198.883659, 242.444046)"><g><path d="M 7.21875 -4.546875 L 5.109375 0.28125 L 3.65625 -2.84375 L 2.328125 0.28125 L 0.203125 -4.546875 L 1.21875 -4.546875 L 2.4375 -1.796875 L 3.28125 -3.765625 L 2.921875 -4.546875 L 3.8125 -4.546875 L 5.046875 -1.734375 L 6.203125 -4.546875 Z M 7.21875 -4.546875 "/></g></g></g><g fill="#000000" fill-opacity="1"><g transform="translate(207.150418, 242.444046)"><g><path d="M 5.5625 -4.546875 L 5.5625 0 L 4.546875 0 L 4.546875 -0.75 C 4.378906 -0.53125 4.140625 -0.332031 3.828125 -0.15625 C 3.523438 0.0195312 3.179688 0.109375 2.796875 0.109375 C 2.359375 0.109375 1.960938 0.015625 1.609375 -0.171875 C 1.265625 -0.359375 0.992188 -0.628906 0.796875 -0.984375 C 0.597656 -1.347656 0.5 -1.78125 0.5 -2.28125 C 0.5 -2.78125 0.601562 -3.210938 0.8125 -3.578125 C 1.019531 -3.953125 1.300781 -4.238281 1.65625 -4.4375 C 2.007812 -4.632812 2.40625 -4.734375 2.84375 -4.734375 C 3.226562 -4.734375 3.5625 -4.648438 3.84375 -4.484375 C 4.132812 -4.316406 4.367188 -4.097656 4.546875 -3.828125 L 4.625 -4.546875 Z M 3.0625 -0.734375 C 3.4375 -0.734375 3.757812 -0.835938 4.03125 -1.046875 C 4.300781 -1.253906 4.472656 -1.539062 4.546875 -1.90625 L 4.546875 -2.8125 C 4.453125 -3.125 4.265625 -3.378906 3.984375 -3.578125 C 3.710938 -3.785156 3.394531 -3.890625 3.03125 -3.890625 C 2.757812 -3.890625 2.507812 -3.820312 2.28125 -3.6875 C 2.050781 -3.5625 1.867188 -3.378906 1.734375 -3.140625 C 1.597656 -2.898438 1.53125 -2.628906 1.53125 -2.328125 C 1.53125 -2.035156 1.597656 -1.769531 1.734375 -1.53125 C 1.878906 -1.289062 2.066406 -1.097656 2.296875 -0.953125 C 2.535156 -0.804688 2.789062 -0.734375 3.0625 -0.734375 Z M 3.0625 -0.734375 "/></g></g></g><g fill="#000000" fill-opacity="1"><g transform="translate(214.449866, 242.444046)"><g><path d="M 1.875 -3.46875 C 2 -3.71875 2.164062 -3.9375 2.375 -4.125 C 2.59375 -4.320312 2.820312 -4.472656 3.0625 -4.578125 C 3.3125 -4.679688 3.523438 -4.734375 3.703125 -4.734375 L 3.65625 -3.71875 C 3.332031 -3.726562 3.035156 -3.660156 2.765625 -3.515625 C 2.492188 -3.367188 2.28125 -3.164062 2.125 -2.90625 C 1.976562 -2.644531 1.90625 -2.367188 1.90625 -2.078125 L 1.90625 0 L 0.890625 0 L 0.890625 -4.546875 L 1.796875 -4.546875 Z M 1.875 -3.46875 "/></g></g></g><g fill="#000000" fill-opacity="1"><g transform="translate(219.429951, 242.444046)"><g><path d="M 3.03125 -0.765625 C 3.40625 -0.765625 3.773438 -0.898438 4.140625 -1.171875 L 4.609375 -0.40625 C 4.367188 -0.25 4.109375 -0.125 3.828125 -0.03125 C 3.546875 0.0625 3.269531 0.109375 3 0.109375 C 2.5 0.109375 2.054688 0.00390625 1.671875 -0.203125 C 1.296875 -0.410156 1.003906 -0.695312 0.796875 -1.0625 C 0.597656 -1.425781 0.5 -1.84375 0.5 -2.3125 C 0.5 -2.757812 0.609375 -3.164062 0.828125 -3.53125 C 1.054688 -3.90625 1.363281 -4.195312 1.75 -4.40625 C 2.132812 -4.625 2.5625 -4.734375 3.03125 -4.734375 C 3.625 -4.734375 4.117188 -4.5625 4.515625 -4.21875 C 4.910156 -3.875 5.179688 -3.390625 5.328125 -2.765625 L 1.734375 -1.5 C 1.859375 -1.269531 2.03125 -1.085938 2.25 -0.953125 C 2.476562 -0.828125 2.738281 -0.765625 3.03125 -0.765625 Z M 2.953125 -3.921875 C 2.535156 -3.921875 2.1875 -3.773438 1.90625 -3.484375 C 1.632812 -3.191406 1.5 -2.816406 1.5 -2.359375 C 1.5 -2.253906 1.503906 -2.171875 1.515625 -2.109375 L 4.171875 -3.09375 C 4.054688 -3.34375 3.898438 -3.539062 3.703125 -3.6875 C 3.503906 -3.84375 3.253906 -3.921875 2.953125 -3.921875 Z M 2.953125 -3.921875 "/></g></g></g></svg>